<?xml version="1.0" encoding="UTF-8" standalone="no"?>
<!-- Created with Inkscape (http://www.inkscape.org/) -->

<svg
   width="1024"
   height="1024"
   viewBox="0 0 270.93333 270.93333"
   version="1.1"
   id="svg1"
   inkscape:version="1.3.2 (091e20e, 2023-11-25, custom)"
   sodipodi:docname="icon.svg"
   inkscape:export-filename="icon_foreground.png"
   inkscape:export-xdpi="96"
   inkscape:export-ydpi="96"
   xmlns:inkscape="http://www.inkscape.org/namespaces/inkscape"
   xmlns:sodipodi="http://sodipodi.sourceforge.net/DTD/sodipodi-0.dtd"
   xmlns:xlink="http://www.w3.org/1999/xlink"
   xmlns="http://www.w3.org/2000/svg"
   xmlns:svg="http://www.w3.org/2000/svg">
  <sodipodi:namedview
     id="namedview1"
     pagecolor="#ffffff"
     bordercolor="#000000"
     borderopacity="0.25"
     inkscape:showpageshadow="2"
     inkscape:pageopacity="0.0"
     inkscape:pagecheckerboard="0"
     inkscape:deskcolor="#d1d1d1"
     inkscape:document-units="mm"
     showguides="true"
     inkscape:zoom="0.25"
     inkscape:cx="10"
     inkscape:cy="402"
     inkscape:window-width="1920"
     inkscape:window-height="1057"
     inkscape:window-x="-8"
     inkscape:window-y="-8"
     inkscape:window-maximized="1"
     inkscape:current-layer="svg1" />
  <defs
     id="defs1">
    <linearGradient
       id="linearGradient87"
       inkscape:collect="always">
      <stop
         style="stop-color:#205781;stop-opacity:1;"
         offset="0"
         id="stop87" />
      <stop
         style="stop-color:#2976a6;stop-opacity:1;"
         offset="1"
         id="stop88" />
    </linearGradient>
    <inkscape:path-effect
       effect="fillet_chamfer"
       id="path-effect84"
       is_visible="true"
       lpeversion="1"
       nodesatellites_param="F,0,0,1,0,3.4395833,0,1 @ F,0,0,1,0,3.4395833,0,1 @ F,0,0,1,0,3.4395833,0,1 @ F,0,0,1,0,3.4395833,0,1 @ F,0,0,1,0,3.4395833,0,1 @ F,0,0,1,0,3.4395833,0,1 @ F,0,0,1,0,3.4395833,0,1 @ F,0,0,1,0,3.4395833,0,1"
       radius="13"
       unit="px"
       method="auto"
       mode="F"
       chamfer_steps="1"
       flexible="false"
       use_knot_distance="true"
       apply_no_radius="true"
       apply_with_radius="true"
       only_selected="false"
       hide_knots="false" />
    <inkscape:path-effect
       effect="offset"
       id="path-effect83"
       is_visible="true"
       lpeversion="1.2"
       linejoin_type="miter"
       unit="mm"
       offset="0"
       miter_limit="4"
       attempt_force_join="false"
       update_on_knot_move="true" />
    <inkscape:path-effect
       effect="fillet_chamfer"
       id="path-effect82"
       is_visible="true"
       lpeversion="1"
       nodesatellites_param="F,0,0,1,0,2.1166667,0,1 @ F,0,0,1,0,2.1166667,0,1 @ F,0,0,1,0,2.1166667,0,1 | F,0,0,1,0,2.1166667,0,1 @ F,0,0,1,0,2.1166667,0,1 @ F,0,0,1,0,2.1166667,0,1 | F,0,0,1,0,2.1166667,0,1 @ F,0,0,1,0,2.1166667,0,1 @ F,0,0,1,0,2.1166667,0,1 | F,0,0,1,0,2.1166667,0,1 @ F,0,0,1,0,2.1166667,0,1 @ F,0,0,1,0,2.1166667,0,1 | F,0,0,1,0,2.1166667,0,1 @ F,0,0,1,0,2.1166667,0,1 @ F,0,0,1,0,2.1166667,0,1 | F,0,0,1,0,2.1166667,0,1 @ F,0,0,1,0,2.1166667,0,1 @ F,0,0,1,0,2.1166667,0,1"
       radius="8"
       unit="px"
       method="bezier"
       mode="F"
       chamfer_steps="1"
       flexible="false"
       use_knot_distance="true"
       apply_no_radius="true"
       apply_with_radius="true"
       only_selected="false"
       hide_knots="false" />
    <inkscape:path-effect
       effect="offset"
       id="path-effect81"
       is_visible="true"
       lpeversion="1.2"
       linejoin_type="round"
       unit="mm"
       offset="0.7"
       miter_limit="4"
       attempt_force_join="false"
       update_on_knot_move="true" />
    <inkscape:path-effect
       effect="offset"
       id="path-effect79"
       is_visible="true"
       lpeversion="1.2"
       linejoin_type="round"
       unit="mm"
       offset="0.1"
       miter_limit="4"
       attempt_force_join="false"
       update_on_knot_move="true" />
    <linearGradient
       inkscape:collect="always"
       xlink:href="#linearGradient87"
       id="linearGradient88"
       x1="33.866665"
       y1="67.73333"
       x2="33.866665"
       y2="1.7801921e-06"
       gradientUnits="userSpaceOnUse"
       gradientTransform="matrix(4.0000002,0,0,4.0000002,-5.3405765e-6,-5.3405765e-6)" />
    <inkscape:path-effect
       effect="fillet_chamfer"
       id="path-effect84-5"
       is_visible="true"
       lpeversion="1"
       nodesatellites_param="F,0,0,1,0,3.4395833,0,1 @ F,0,0,1,0,3.4395833,0,1 @ F,0,0,1,0,3.4395833,0,1 @ F,0,0,1,0,3.4395833,0,1 @ F,0,0,1,0,3.4395833,0,1 @ F,0,0,1,0,3.4395833,0,1 @ F,0,0,1,0,3.4395833,0,1 @ F,0,0,1,0,3.4395833,0,1"
       radius="13"
       unit="px"
       method="auto"
       mode="F"
       chamfer_steps="1"
       flexible="false"
       use_knot_distance="true"
       apply_no_radius="true"
       apply_with_radius="true"
       only_selected="false"
       hide_knots="false" />
    <inkscape:path-effect
       effect="fillet_chamfer"
       id="path-effect82-2"
       is_visible="true"
       lpeversion="1"
       nodesatellites_param="F,0,0,1,0,2.1166667,0,1 @ F,0,0,1,0,2.1166667,0,1 @ F,0,0,1,0,2.1166667,0,1 | F,0,0,1,0,2.1166667,0,1 @ F,0,0,1,0,2.1166667,0,1 @ F,0,0,1,0,2.1166667,0,1 | F,0,0,1,0,2.1166667,0,1 @ F,0,0,1,0,2.1166667,0,1 @ F,0,0,1,0,2.1166667,0,1 | F,0,0,1,0,2.1166667,0,1 @ F,0,0,1,0,2.1166667,0,1 @ F,0,0,1,0,2.1166667,0,1 | F,0,0,1,0,2.1166667,0,1 @ F,0,0,1,0,2.1166667,0,1 @ F,0,0,1,0,2.1166667,0,1 | F,0,0,1,0,2.1166667,0,1 @ F,0,0,1,0,2.1166667,0,1 @ F,0,0,1,0,2.1166667,0,1"
       radius="8"
       unit="px"
       method="bezier"
       mode="F"
       chamfer_steps="1"
       flexible="false"
       use_knot_distance="true"
       apply_no_radius="true"
       apply_with_radius="true"
       only_selected="false"
       hide_knots="false" />
  </defs>
  <rect
     style="display:inline;fill:url(#linearGradient88);fill-opacity:1;stroke-width:4.862;stroke-linecap:round;stroke-linejoin:round"
     id="rect3"
     width="270.93332"
     height="270.93332"
     x="1.7801921e-06"
     y="1.7801921e-06" />
  <g
     id="g84"
     transform="matrix(3.3846936,0,0,3.3846936,20.883242,14.009322)"
     style="display:inline;opacity:1;fill:#c2e4da;fill-opacity:1">
    <path
       d="m 17.996127,47.298226 c 0.715349,3.316914 2.458051,6.330661 4.977237,8.607314 1.406745,1.271312 4.110164,2.829864 5.915116,3.410616 3.235067,1.040897 6.721279,1.0409 9.956347,9e-6 1.804968,-0.580753 4.508387,-2.139308 5.915123,-3.410607 2.51919,-2.27665 4.261897,-5.290393 4.977251,-8.607306 0.399733,-1.853457 -1.176337,-3.413833 -3.075966,-3.413833 -1.19871,0 -2.120249,1.587035 -2.723592,3.379504 -0.451743,1.34208 -1.168464,2.581433 -2.106726,3.642922 -1.252587,1.417098 -4.002062,3.002032 -5.85593,3.37667 -1.391018,0.281102 -2.825605,0.281103 -4.216623,3e-6 -1.853878,-0.374637 -4.603353,-1.959571 -5.855937,-3.376661 -0.938263,-1.061487 -1.654987,-2.300839 -2.106731,-3.642919 -0.603349,-1.792476 -2.093141,-3.379519 -3.99277,-3.379519 -1.19871,0 -2.206526,1.560363 -1.806799,3.413807 z"
       style="fill:#c2e4da;fill-opacity:1;stroke-width:1.2155;stroke-linecap:round;stroke-linejoin:round"
       id="path1"
       inkscape:path-effect="#path-effect84"
       inkscape:original-d="m 17.632516,43.884419 c 5.2e-5,5.792244 3.09437,11.14446 8.117334,14.040485 5.022731,2.895903 11.210903,2.895903 16.233634,0 5.022964,-2.896025 8.117282,-8.248242 8.117334,-14.040485 h -5.609994 c -2.6e-5,3.790667 -2.025091,7.293358 -5.312337,9.188585 -3.286989,1.895118 -7.33665,1.895118 -10.62364,0 -3.287246,-1.895226 -5.312312,-5.397918 -5.312338,-9.188585 z" />
    <path
       id="path3-1-9"
       style="fill:#c2e4da;fill-opacity:1;stroke-width:1.2155;stroke-linecap:round;stroke-linejoin:round"
       d="m 34.924999,12.431049 2.706732,4.688197 c 0.584501,1.012386 0.110669,1.833087 -1.058334,1.833087 h -5.413461 c -1.169003,0 -1.642835,-0.820701 -1.058334,-1.833087 l 2.706731,-4.688197 c 0.584501,-1.012386 1.532165,-1.012386 2.116666,0 z m -5.700378,10.108333 2.706731,4.688196 c 0.584501,1.012386 0.110669,1.833087 -1.058334,1.833087 h -5.413462 c -1.169003,0 -1.642835,-0.820701 -1.058333,-1.833087 l 2.706731,-4.688196 c 0.584502,-1.012386 1.532166,-1.012386 2.116667,0 z m 11.400757,0 2.706732,4.688196 c 0.584501,1.012386 0.110669,1.833087 -1.058334,1.833087 h -5.413462 c -1.169003,0 -1.642835,-0.820701 -1.058334,-1.833087 l 2.706732,-4.688196 c 0.584501,-1.012386 1.532165,-1.012386 2.116666,0 z m -17.101137,10.108333 2.706732,4.688195 c 0.584501,1.012386 0.110669,1.833087 -1.058334,1.833087 h -5.413461 c -1.169003,0 -1.642835,-0.820701 -1.058334,-1.833087 l 2.706731,-4.688195 c 0.584501,-1.012386 1.532165,-1.012386 2.116666,0 z m 22.801516,0 2.706732,4.688195 c 0.584501,1.012386 0.110669,1.833087 -1.058334,1.833087 h -5.413461 c -1.169003,0 -1.642835,-0.820701 -1.058334,-1.833087 l 2.706731,-4.688195 c 0.584501,-1.012386 1.532165,-1.012386 2.116666,0 z m -11.400758,0 2.706732,4.688195 c 0.584501,1.012386 0.110669,1.833087 -1.058334,1.833087 h -5.413461 c -1.169003,0 -1.642835,-0.820701 -1.058334,-1.833087 l 2.706731,-4.688195 c 0.584501,-1.012386 1.532165,-1.012386 2.116666,0 z"
       inkscape:path-effect="#path-effect82"
       inkscape:original-d="m 33.866666,10.597962 4.823398,8.354371 h -9.646795 z m -5.700378,10.108333 4.823397,8.35437 h -9.646796 z m 11.400757,0 4.823398,8.35437 h -9.646796 z m -17.101137,10.108333 4.823398,8.354369 h -9.646795 z m 22.801516,0 4.823398,8.354369 h -9.646795 z m -11.400758,0 4.823398,8.354369 h -9.646795 z"
       sodipodi:nodetypes="cccccccccccccccccccccccc" />
  </g>
</svg>
